<svg id="logosandtypes_com" data-name="logosandtypes com" xmlns="http://www.w3.org/2000/svg" viewBox="0 0 150 150"><defs><style>.cls-1{fill:none;}.cls-2{fill:#f5622c;}.cls-3{fill:#2a66ae;}.cls-4{fill:#e6158c;}</style></defs><g id="Layer_3" data-name="Layer 3"><path id="Layer_3-2" data-name="Layer 3" class="cls-1" d="M0,.2H150v150H0Z" transform="translate(0 -0.2)"/></g><path class="cls-2" d="M58.86,107a3.4,3.4,0,1,0,4-2.65,3.39,3.39,0,0,0-4,2.65" transform="translate(0 -0.2)"/><path class="cls-2" d="M69,94.37a4.56,4.56,0,1,0,3.53,5.4A4.56,4.56,0,0,0,69,94.37" transform="translate(0 -0.2)"/><path class="cls-2" d="M54.26,112.53a1.93,1.93,0,1,0,2.29-1.48h0a1.94,1.94,0,0,0-2.28,1.49" transform="translate(0 -0.2)"/><path class="cls-2" d="M49.64,116a1.12,1.12,0,1,0,1.33-.87,1.12,1.12,0,0,0-1.33.87h0" transform="translate(0 -0.2)"/><path class="cls-3" d="M31.47,96.52a6.68,6.68,0,1,1,7.07,6.26h0a6.66,6.66,0,0,1-7.06-6.25h0" transform="translate(0 -0.2)"/><path class="cls-3" d="M47.23,94a4.56,4.56,0,1,1,4.83,4.28A4.56,4.56,0,0,1,47.23,94h0" transform="translate(0 -0.2)"/><path class="cls-3" d="M61.3,85.45a3.4,3.4,0,1,1-3.19,3.6h0a3.4,3.4,0,0,1,3.19-3.59" transform="translate(0 -0.2)"/><path class="cls-3" d="M67.62,81.61a1.8,1.8,0,1,1-1.68,1.91h0a1.79,1.79,0,0,1,1.68-1.91" transform="translate(0 -0.2)"/><path class="cls-2" d="M39.19,75.87a3,3,0,1,0,.06,0l-.06,0" transform="translate(0 -0.2)"/><path class="cls-2" d="M55.18,78.35a4.56,4.56,0,1,0-2.9,5.78,4.57,4.57,0,0,0,2.9-5.78" transform="translate(0 -0.2)"/><path class="cls-2" d="M32.09,74.67a1.93,1.93,0,1,0,2.43,1.23,1.93,1.93,0,0,0-2.43-1.23h0" transform="translate(0 -0.2)"/><path class="cls-2" d="M26.75,72.39A1.13,1.13,0,0,0,26,73.81a1.12,1.12,0,1,0,.73-1.42h0" transform="translate(0 -0.2)"/><path class="cls-3" d="M34.54,46.92a6.68,6.68,0,1,1-1.89,9.25,6.68,6.68,0,0,1,1.89-9.25" transform="translate(0 -0.2)"/><path class="cls-3" d="M44.6,59.32a4.56,4.56,0,1,1-1.29,6.32h0a4.56,4.56,0,0,1,1.28-6.32h0" transform="translate(0 -0.2)"/><path class="cls-3" d="M59,67.22a3.39,3.39,0,1,1-4.7-1,3.39,3.39,0,0,1,4.7,1" transform="translate(0 -0.2)"/><path class="cls-3" d="M65.54,70.77a1.8,1.8,0,1,1-2.5-.51,1.81,1.81,0,0,1,2.5.51" transform="translate(0 -0.2)"/><path class="cls-2" d="M56.28,43.38a3.4,3.4,0,1,0,.27,4.8h0a3.39,3.39,0,0,0-.27-4.79" transform="translate(0 -0.2)"/><path class="cls-2" d="M62.13,58.47a4.56,4.56,0,1,0-6.44.36,4.56,4.56,0,0,0,6.44-.36h0" transform="translate(0 -0.2)"/><path class="cls-2" d="M53.77,36.62a1.93,1.93,0,1,0,.15,2.72,1.92,1.92,0,0,0-.15-2.72" transform="translate(0 -0.2)"/><path class="cls-2" d="M53.07,30.86a1.12,1.12,0,1,0,.09,1.59,1.12,1.12,0,0,0-.09-1.59h0" transform="translate(0 -0.2)"/><path class="cls-3" d="M79,24.88a6.68,6.68,0,1,1-9,3,6.68,6.68,0,0,1,9-3h0" transform="translate(0 -0.2)"/><path class="cls-3" d="M73.32,39.79a4.56,4.56,0,1,1-6.12,2,4.56,4.56,0,0,1,6.12-2" transform="translate(0 -0.2)"/><path class="cls-3" d="M73.7,56.25a3.4,3.4,0,1,1-1.52-4.55,3.4,3.4,0,0,1,1.52,4.55h0" transform="translate(0 -0.2)"/><path class="cls-3" d="M92,9.21a8.57,8.57,0,1,1-11.5,3.84h0A8.55,8.55,0,0,1,92,9.21h0" transform="translate(0 -0.2)"/><path class="cls-3" d="M73.87,63.65a1.8,1.8,0,1,1-.81-2.42,1.81,1.81,0,0,1,.81,2.42" transform="translate(0 -0.2)"/><path class="cls-2" d="M93,41.89a3.4,3.4,0,1,0-4,2.63h0a3.39,3.39,0,0,0,4-2.62h0" transform="translate(0 -0.2)"/><path class="cls-2" d="M82.83,54.5a4.56,4.56,0,1,0-3.54-5.4,4.56,4.56,0,0,0,3.54,5.4h0" transform="translate(0 -0.2)"/><path class="cls-2" d="M97.56,36.33a1.92,1.92,0,1,0-2.27,1.49,1.91,1.91,0,0,0,2.27-1.49h0" transform="translate(0 -0.2)"/><path class="cls-2" d="M102.19,32.86a1.12,1.12,0,1,0-1.33.87,1.12,1.12,0,0,0,1.33-.87h0" transform="translate(0 -0.2)"/><path class="cls-3" d="M120.36,52.34a6.68,6.68,0,1,1-7.08-6.26h0a6.68,6.68,0,0,1,7.07,6.26" transform="translate(0 -0.2)"/><path class="cls-3" d="M104.6,54.85a4.56,4.56,0,1,1-4.83-4.28,4.56,4.56,0,0,1,4.83,4.28" transform="translate(0 -0.2)"/><path class="cls-3" d="M90.53,63.41a3.4,3.4,0,1,1,3.19-3.6h0a3.4,3.4,0,0,1-3.19,3.59" transform="translate(0 -0.2)"/><path class="cls-3" d="M84.21,67.26a1.8,1.8,0,1,1,1.68-1.91h0a1.79,1.79,0,0,1-1.67,1.91h0" transform="translate(0 -0.2)"/><path class="cls-4" d="M81.22,70.4a6.68,6.68,0,1,0-1.3,9.35h0a6.69,6.69,0,0,0,1.29-9.35" transform="translate(0 -0.2)"/><path class="cls-2" d="M95.55,105.47a3.39,3.39,0,1,0-.27-4.79,3.39,3.39,0,0,0,.27,4.79" transform="translate(0 -0.2)"/><path class="cls-2" d="M89.71,90.38A4.56,4.56,0,1,0,96.14,90a4.56,4.56,0,0,0-6.43.35h0" transform="translate(0 -0.2)"/><path class="cls-2" d="M98.07,112.23a1.92,1.92,0,1,0-.15-2.72h0a1.92,1.92,0,0,0,.14,2.71h0" transform="translate(0 -0.2)"/><path class="cls-2" d="M98.76,118a1.12,1.12,0,1,0-.09-1.6,1.12,1.12,0,0,0,.09,1.6l0,0" transform="translate(0 -0.2)"/><path class="cls-3" d="M72.79,124a6.68,6.68,0,1,1,9-3,6.69,6.69,0,0,1-9,3h0" transform="translate(0 -0.2)"/><path class="cls-3" d="M78.49,109.07a4.56,4.56,0,1,1,6.12-2,4.57,4.57,0,0,1-6.12,2" transform="translate(0 -0.2)"/><path class="cls-3" d="M78.12,92.61a3.39,3.39,0,1,1,1.52,4.55h0a3.39,3.39,0,0,1-1.52-4.55" transform="translate(0 -0.2)"/><path class="cls-3" d="M59.81,139.65a8.57,8.57,0,1,1,11.49-3.84,8.57,8.57,0,0,1-11.49,3.84h0" transform="translate(0 -0.2)"/><path class="cls-2" d="M112.63,73a3.4,3.4,0,1,0-4.28-2.19v0A3.4,3.4,0,0,0,112.65,73h0" transform="translate(0 -0.2)"/><path class="cls-2" d="M96.64,70.47a4.57,4.57,0,1,0,2.92-5.76h0a4.57,4.57,0,0,0-2.91,5.76" transform="translate(0 -0.2)"/><path class="cls-2" d="M119.74,74.15a1.92,1.92,0,1,0-2.41-1.25v0a1.92,1.92,0,0,0,2.42,1.23h0" transform="translate(0 -0.2)"/><path class="cls-2" d="M125.06,76.42a1.12,1.12,0,1,0-1.42-.72,1.11,1.11,0,0,0,1.41.72h0" transform="translate(0 -0.2)"/><path class="cls-3" d="M78,85.21a1.8,1.8,0,1,1,.8,2.42,1.8,1.8,0,0,1-.8-2.42" transform="translate(0 -0.2)"/><path class="cls-3" d="M117.28,101.9a6.68,6.68,0,1,1,1.88-9.26,6.68,6.68,0,0,1-1.88,9.26" transform="translate(0 -0.2)"/><path class="cls-3" d="M107.24,89.5a4.56,4.56,0,1,1,1.29-6.32,4.56,4.56,0,0,1-1.29,6.32h0" transform="translate(0 -0.2)"/><path class="cls-3" d="M92.77,81.6a3.4,3.4,0,1,1,4.71,1,3.4,3.4,0,0,1-4.71-1h0" transform="translate(0 -0.2)"/><path class="cls-3" d="M86.28,78.05a1.8,1.8,0,1,1,2.5.51,1.81,1.81,0,0,1-2.5-.51h0" transform="translate(0 -0.2)"/></svg>